<mxfile host="Electron" agent="Mozilla/5.0 (Windows NT 10.0; Win64; x64) AppleWebKit/537.36 (KHTML, like Gecko) draw.io/26.0.9 Chrome/128.0.6613.186 Electron/32.2.5 Safari/537.36" version="26.0.9">
  <diagram id="Gz92kaDBu5tP0qBZvZyI" name="ページ1">
    <mxGraphModel dx="988" dy="573" grid="1" gridSize="10" guides="1" tooltips="1" connect="1" arrows="1" fold="1" page="1" pageScale="1" pageWidth="827" pageHeight="1169" math="0" shadow="0">
      <root>
        <mxCell id="0" />
        <mxCell id="1" parent="0" />
        <mxCell id="eECiYjA0cPCtBfQXOjN3-60" value="" style="rounded=1;whiteSpace=wrap;html=1;fontSize=20;fontColor=#006885;fillColor=#E6F5F5;strokeWidth=1;arcSize=5;strokeColor=#99D5D5;" parent="1" vertex="1">
          <mxGeometry x="820" y="550" width="820" height="450" as="geometry" />
        </mxCell>
        <mxCell id="2" value="&lt;font face=&quot;Roboto&quot; color=&quot;#ffffff&quot;&gt;&lt;span style=&quot;font-size: 20px;&quot;&gt;Billet Stocks&lt;/span&gt;&lt;/font&gt;" style="rounded=0;whiteSpace=wrap;html=1;fillColor=#377A94;strokeColor=none;strokeWidth=0;" parent="1" vertex="1">
          <mxGeometry y="110" width="825" height="50" as="geometry" />
        </mxCell>
        <mxCell id="9" value="&lt;font face=&quot;Roboto&quot; color=&quot;#377a94&quot;&gt;&lt;u style=&quot;&quot;&gt;#2 Billet Stocks&lt;/u&gt;&lt;/font&gt;" style="text;html=1;strokeColor=none;fillColor=none;align=left;verticalAlign=middle;whiteSpace=wrap;rounded=0;fontSize=20;fontColor=#FFFFFF;" parent="1" vertex="1">
          <mxGeometry y="210" width="240" height="40" as="geometry" />
        </mxCell>
        <mxCell id="10" value="" style="rounded=1;whiteSpace=wrap;html=1;fontSize=20;fontColor=#006885;fillColor=#F9DD89;strokeWidth=1;arcSize=9;strokeColor=#F9DD89;" parent="1" vertex="1">
          <mxGeometry x="2" y="1150" width="410" height="80" as="geometry" />
        </mxCell>
        <mxCell id="11" value="&lt;font style=&quot;font-size: 16px;&quot; data-font-src=&quot;https://fonts.googleapis.com/css?family=Roboto&quot; face=&quot;Roboto&quot; color=&quot;#ffffff&quot;&gt;Die Number&lt;/font&gt;" style="rounded=0;whiteSpace=wrap;html=1;strokeWidth=0;fontSize=20;fontColor=#006885;fillColor=#377A94;" parent="1" vertex="1">
          <mxGeometry x="32" y="1170" width="150" height="20" as="geometry" />
        </mxCell>
        <mxCell id="26" value="" style="rounded=0;whiteSpace=wrap;html=1;strokeColor=#006885;" parent="1" vertex="1">
          <mxGeometry x="32" y="1190" width="50" height="20" as="geometry" />
        </mxCell>
        <mxCell id="27" value="" style="rounded=0;whiteSpace=wrap;html=1;strokeColor=#006885;" parent="1" vertex="1">
          <mxGeometry x="82" y="1190" width="100" height="20" as="geometry" />
        </mxCell>
        <mxCell id="28" value="&lt;font face=&quot;Roboto&quot; color=&quot;#ffffff&quot;&gt;&lt;span style=&quot;font-size: 16px;&quot;&gt;Press Date&lt;/span&gt;&lt;/font&gt;" style="rounded=0;whiteSpace=wrap;html=1;strokeWidth=0;fontSize=20;fontColor=#006885;fillColor=#377A94;" parent="1" vertex="1">
          <mxGeometry x="222" y="1170" width="150" height="20" as="geometry" />
        </mxCell>
        <mxCell id="29" value="" style="rounded=0;whiteSpace=wrap;html=1;strokeColor=#006885;" parent="1" vertex="1">
          <mxGeometry x="222" y="1190" width="150" height="20" as="geometry" />
        </mxCell>
        <mxCell id="30" value="" style="rounded=1;whiteSpace=wrap;html=1;fontSize=20;fontColor=#006885;fillColor=#F6CE4C;strokeWidth=1;arcSize=9;strokeColor=#99D5D5;" parent="1" vertex="1">
          <mxGeometry x="416" y="1150" width="411" height="80" as="geometry" />
        </mxCell>
        <mxCell id="31" value="&lt;font face=&quot;Roboto&quot; color=&quot;#ffffff&quot;&gt;&lt;span style=&quot;font-size: 16px;&quot;&gt;Press Directive No&lt;/span&gt;&lt;/font&gt;" style="rounded=0;whiteSpace=wrap;html=1;strokeWidth=0;fontSize=20;fontColor=#006885;fillColor=#377A94;" parent="1" vertex="1">
          <mxGeometry x="532" y="1170" width="150" height="20" as="geometry" />
        </mxCell>
        <mxCell id="32" value="" style="rounded=0;whiteSpace=wrap;html=1;strokeColor=#006885;" parent="1" vertex="1">
          <mxGeometry x="532" y="1190" width="150" height="20" as="geometry" />
        </mxCell>
        <mxCell id="33" value="" style="rounded=1;whiteSpace=wrap;html=1;fontSize=20;fontColor=#006885;fillColor=#F4E8EB;strokeWidth=1;arcSize=9;strokeColor=#99D5D5;" parent="1" vertex="1">
          <mxGeometry x="2" y="1270" width="410" height="80" as="geometry" />
        </mxCell>
        <mxCell id="34" value="&lt;font face=&quot;Roboto-Light&quot; style=&quot;font-size: 16px;&quot; data-font-src=&quot;https://fonts.googleapis.com/css?family=Roboto-Light&quot; color=&quot;#ffffff&quot;&gt;Billet Size&lt;/font&gt;" style="rounded=0;whiteSpace=wrap;html=1;strokeWidth=0;fontSize=20;fontColor=#006885;fillColor=#377A94;" parent="1" vertex="1">
          <mxGeometry x="32" y="1290" width="150" height="20" as="geometry" />
        </mxCell>
        <mxCell id="35" value="" style="rounded=0;whiteSpace=wrap;html=1;strokeColor=#006885;" parent="1" vertex="1">
          <mxGeometry x="32" y="1310" width="50" height="20" as="geometry" />
        </mxCell>
        <mxCell id="36" value="" style="rounded=0;whiteSpace=wrap;html=1;strokeColor=#006885;" parent="1" vertex="1">
          <mxGeometry x="82" y="1310" width="100" height="20" as="geometry" />
        </mxCell>
        <mxCell id="eECiYjA0cPCtBfQXOjN3-50" value="&lt;font face=&quot;Roboto-light&quot; style=&quot;font-size: 16px;&quot; data-font-src=&quot;https://fonts.googleapis.com/css?family=Roboto-light&quot; color=&quot;#ffffff&quot;&gt;id&lt;/font&gt;" style="rounded=0;whiteSpace=wrap;html=1;strokeWidth=0;fontSize=20;fontColor=#006885;fillColor=#377A94;" parent="1" vertex="1">
          <mxGeometry x="50" y="280" width="100" height="20" as="geometry" />
        </mxCell>
        <mxCell id="eECiYjA0cPCtBfQXOjN3-51" value="&lt;font face=&quot;Roboto-light&quot; color=&quot;#ffffff&quot;&gt;&lt;span style=&quot;font-size: 16px;&quot;&gt;Lot Nummber&lt;/span&gt;&lt;/font&gt;" style="rounded=0;whiteSpace=wrap;html=1;strokeWidth=0;fontSize=20;fontColor=#006885;fillColor=#377A94;" parent="1" vertex="1">
          <mxGeometry x="280" y="280" width="130" height="20" as="geometry" />
        </mxCell>
        <mxCell id="eECiYjA0cPCtBfQXOjN3-52" value="" style="rounded=0;whiteSpace=wrap;html=1;strokeColor=#006885;" parent="1" vertex="1">
          <mxGeometry x="50" y="300" width="100" height="30" as="geometry" />
        </mxCell>
        <mxCell id="eECiYjA0cPCtBfQXOjN3-53" value="" style="rounded=0;whiteSpace=wrap;html=1;strokeColor=#006885;" parent="1" vertex="1">
          <mxGeometry x="280" y="300" width="130" height="30" as="geometry" />
        </mxCell>
        <mxCell id="eECiYjA0cPCtBfQXOjN3-54" value="2883" style="rounded=0;whiteSpace=wrap;html=1;strokeColor=#666666;fillColor=#f5f5f5;fontColor=#333333;fontFamily=Roboto Mono;fontSize=18;" parent="1" vertex="1">
          <mxGeometry x="50" y="330" width="100" height="30" as="geometry" />
        </mxCell>
        <mxCell id="eECiYjA0cPCtBfQXOjN3-55" value="&lt;font face=&quot;Roboto Mono&quot;&gt;123-00iiw1&lt;/font&gt;" style="rounded=0;whiteSpace=wrap;html=1;strokeColor=#666666;fillColor=#f5f5f5;fontColor=#333333;fontFamily=Roboto Mono;fontSize=18;" parent="1" vertex="1">
          <mxGeometry x="280" y="330" width="130" height="30" as="geometry" />
        </mxCell>
        <mxCell id="eECiYjA0cPCtBfQXOjN3-56" value="" style="rounded=0;whiteSpace=wrap;html=1;strokeColor=#006885;" parent="1" vertex="1">
          <mxGeometry x="50" y="360" width="100" height="30" as="geometry" />
        </mxCell>
        <mxCell id="eECiYjA0cPCtBfQXOjN3-57" value="" style="rounded=0;whiteSpace=wrap;html=1;strokeColor=#006885;" parent="1" vertex="1">
          <mxGeometry x="280" y="360" width="130" height="30" as="geometry" />
        </mxCell>
        <mxCell id="eECiYjA0cPCtBfQXOjN3-58" value="" style="rounded=0;whiteSpace=wrap;html=1;strokeColor=#006885;fillColor=#FFE066;" parent="1" vertex="1">
          <mxGeometry x="50" y="390" width="100" height="30" as="geometry" />
        </mxCell>
        <mxCell id="eECiYjA0cPCtBfQXOjN3-59" value="" style="rounded=0;whiteSpace=wrap;html=1;strokeColor=#006885;fillColor=#FFEB8A;" parent="1" vertex="1">
          <mxGeometry x="280" y="390" width="130" height="30" as="geometry" />
        </mxCell>
        <mxCell id="eECiYjA0cPCtBfQXOjN3-61" value="&lt;font face=&quot;Roboto-light&quot; color=&quot;#ffffff&quot;&gt;&lt;span style=&quot;font-size: 16px;&quot;&gt;Qty&lt;/span&gt;&lt;/font&gt;" style="rounded=0;whiteSpace=wrap;html=1;strokeWidth=0;fontSize=20;fontColor=#006885;fillColor=#377A94;" parent="1" vertex="1">
          <mxGeometry x="410" y="280" width="130" height="20" as="geometry" />
        </mxCell>
        <mxCell id="eECiYjA0cPCtBfQXOjN3-62" value="" style="rounded=0;whiteSpace=wrap;html=1;strokeColor=#006885;" parent="1" vertex="1">
          <mxGeometry x="410" y="300" width="130" height="30" as="geometry" />
        </mxCell>
        <mxCell id="eECiYjA0cPCtBfQXOjN3-63" value="20" style="rounded=0;whiteSpace=wrap;html=1;strokeColor=#666666;fillColor=#f5f5f5;fontColor=#333333;fontFamily=Roboto Mono;fontSize=18;" parent="1" vertex="1">
          <mxGeometry x="410" y="330" width="130" height="30" as="geometry" />
        </mxCell>
        <mxCell id="eECiYjA0cPCtBfQXOjN3-64" value="" style="rounded=0;whiteSpace=wrap;html=1;strokeColor=#006885;" parent="1" vertex="1">
          <mxGeometry x="410" y="360" width="130" height="30" as="geometry" />
        </mxCell>
        <mxCell id="eECiYjA0cPCtBfQXOjN3-65" value="" style="rounded=0;whiteSpace=wrap;html=1;strokeColor=#006885;" parent="1" vertex="1">
          <mxGeometry x="410" y="390" width="130" height="30" as="geometry" />
        </mxCell>
        <mxCell id="eECiYjA0cPCtBfQXOjN3-66" value="&lt;font face=&quot;Roboto-light&quot; color=&quot;#ffffff&quot;&gt;&lt;span style=&quot;font-size: 16px;&quot;&gt;Size&lt;/span&gt;&lt;/font&gt;" style="rounded=0;whiteSpace=wrap;html=1;strokeWidth=0;fontSize=20;fontColor=#006885;fillColor=#377A94;" parent="1" vertex="1">
          <mxGeometry x="540" y="280" width="130" height="20" as="geometry" />
        </mxCell>
        <mxCell id="eECiYjA0cPCtBfQXOjN3-67" value="" style="rounded=0;whiteSpace=wrap;html=1;strokeColor=#006885;" parent="1" vertex="1">
          <mxGeometry x="540" y="300" width="130" height="30" as="geometry" />
        </mxCell>
        <mxCell id="eECiYjA0cPCtBfQXOjN3-68" value="9" style="rounded=0;whiteSpace=wrap;html=1;strokeColor=#666666;fillColor=#f5f5f5;fontColor=#333333;fontFamily=Roboto Mono;fontSize=18;" parent="1" vertex="1">
          <mxGeometry x="540" y="330" width="130" height="30" as="geometry" />
        </mxCell>
        <mxCell id="eECiYjA0cPCtBfQXOjN3-69" value="" style="rounded=0;whiteSpace=wrap;html=1;strokeColor=#006885;" parent="1" vertex="1">
          <mxGeometry x="540" y="360" width="130" height="30" as="geometry" />
        </mxCell>
        <mxCell id="eECiYjA0cPCtBfQXOjN3-70" value="" style="rounded=0;whiteSpace=wrap;html=1;strokeColor=#006885;fillColor=#FFFAAD;" parent="1" vertex="1">
          <mxGeometry x="540" y="390" width="130" height="30" as="geometry" />
        </mxCell>
        <mxCell id="eECiYjA0cPCtBfQXOjN3-78" value="&lt;font face=&quot;Roboto-light&quot; color=&quot;#ffffff&quot;&gt;&lt;span style=&quot;font-size: 16px;&quot;&gt;Vendor&lt;/span&gt;&lt;/font&gt;" style="rounded=0;whiteSpace=wrap;html=1;strokeWidth=0;fontSize=20;fontColor=#006885;fillColor=#377A94;" parent="1" vertex="1">
          <mxGeometry x="150" y="280" width="130" height="20" as="geometry" />
        </mxCell>
        <mxCell id="eECiYjA0cPCtBfQXOjN3-79" value="" style="rounded=0;whiteSpace=wrap;html=1;strokeColor=#006885;" parent="1" vertex="1">
          <mxGeometry x="150" y="300" width="130" height="30" as="geometry" />
        </mxCell>
        <mxCell id="eECiYjA0cPCtBfQXOjN3-80" value="Dubai" style="rounded=0;whiteSpace=wrap;html=1;strokeColor=#666666;fillColor=#f5f5f5;fontColor=#333333;fontFamily=Roboto Mono;fontSize=18;" parent="1" vertex="1">
          <mxGeometry x="150" y="330" width="130" height="30" as="geometry" />
        </mxCell>
        <mxCell id="eECiYjA0cPCtBfQXOjN3-81" value="" style="rounded=0;whiteSpace=wrap;html=1;strokeColor=#006885;" parent="1" vertex="1">
          <mxGeometry x="150" y="360" width="130" height="30" as="geometry" />
        </mxCell>
        <mxCell id="eECiYjA0cPCtBfQXOjN3-82" value="" style="rounded=0;whiteSpace=wrap;html=1;strokeColor=#006885;" parent="1" vertex="1">
          <mxGeometry x="150" y="390" width="130" height="30" as="geometry" />
        </mxCell>
      </root>
    </mxGraphModel>
  </diagram>
</mxfile>
